<svg width="512" height="512" xmlns="http://www.w3.org/2000/svg" style="vector-effect: non-scaling-stroke;">

 <g>
  <title>background</title>
  <rect fill="none" id="canvas_background" height="402" width="582" y="-1" x="-1"/>
 </g>
 <g>
  <title>Layer 1</title>
  <path id="svg_1" d="m219.748993,256.252014l0.000992,-0.005005l-3.250992,11.519012l3.25,-11.514008l0,0z"/>
  <path id="svg_2" d="m236.464996,281.259003l-3.582001,-0.022003l3.582001,0.022003z"/>
  <path id="svg_3" d="m235.544006,298.460999l0.003006,0l-21.457001,0.078003l21.453995,-0.078003l0,0z"/>
  <path id="svg_4" d="m240.042007,281.279999l-3.582993,-0.020996l3.582993,0.020996z"/>
  <path id="svg_5" d="m237.425003,296.998993l3.737,-14.255005l-3.737,14.257996l0,-0.002991l0,0z"/>
  <path id="svg_6" d="m316.427002,231.352005l-6.962006,32.733017l6.962006,-32.733017z"/>
  <path id="svg_7" d="m298.528992,231.352005l-5.286987,24.452988l5.286987,-24.454987l0,0.001999z"/>
  <path style="vector-effect: non-scaling-stroke;" fill="#007fff" id="svg_8" d="m315.234009,229.878998l-14.889984,0c-0.826019,0 -1.646027,0.66301 -1.821014,1.470001l-5.286987,24.455002l-5.286011,24.456009c-0.174011,0.806976 -0.993011,1.468994 -1.820007,1.468994l-9.03299,0l-1.505005,0c-10.425995,0 -9.221008,-7.213013 -7.084015,-17.093018c0.021027,-0.098999 0.042023,-0.195984 0.062012,-0.297974l0.234009,-1.246002c0.015991,-0.080017 0.031006,-0.160004 0.044006,-0.233002l0.47699,-2.536011l0.51001,-2.71701c0.154999,-0.819 0.389984,-2.016983 0.544983,-2.769989l2.401001,-11.740997l2.406006,-11.740997c0.165985,-0.809998 -0.376007,-1.475006 -1.20401,-1.475006l-15.281982,0c-0.824005,0 -1.644012,0.665009 -1.812012,1.473007l-3.287003,15.589996l-3.285995,15.58699c-0.003006,0.007996 -0.005005,0.018005 -0.005005,0.024017l-0.304993,1.449005c-3.785995,17.278992 -2.781998,33.757996 17.789001,34.27298c0.337006,0.01001 0.596985,0.013 0.596985,0.013l32.289001,0c0.826996,0 1.644012,-0.664001 1.81601,-1.471985l6.964996,-32.731018l6.962006,-32.733994c0.172974,-0.80899 -0.362,-1.472 -1.190002,-1.472l0,0z"/>
  <path id="svg_9" d="m374.632996,281.89801c0.826019,0 1.368011,0.661987 1.201996,1.471985l-1.446991,7.06601"/>
  <path id="svg_10" d="m372.945007,297.506989l1.444,-7.070007l-1.445984,7.072021c-0.000031,-0.002014 0.001984,-0.002014 0.001984,-0.002014l0,0z"/>
  <path id="svg_11" d="m371.131989,298.993011c0.002991,0 0.006012,-0.002014 0.007996,-0.002014c-4.382996,0.035004 -17.550995,0.136017 -27.446991,0.136017c12.044006,0 27.438995,-0.132019 27.438995,-0.132019l0,-0.001984z"/>
  <path id="svg_12" d="m334.811005,272.796997c-0.011993,-0.773987 0.868988,-2.108002 1.695007,-2.108002l-1.859009,-0.029999c-0.837006,8.427002 0.164001,2.138 0.164001,2.138l0,0z"/>
  <path id="svg_13" d="m345.049988,299.122986c-0.095001,0 -0.191986,0 -0.286987,0.002014c0.093994,-0.002014 0.191986,-0.002014 0.286987,-0.002014z"/>
  <path id="svg_14" d="m374.632996,281.89801c0.826019,0 1.368011,0.661987 1.201996,1.471985l-1.446991,7.06601l-0.234985,1.152008"/>
  <path id="svg_15" d="m352.098999,299.108002l-0.061005,0l0.061005,0z"/>
  <path id="svg_16" d="m348.442993,299.118988l-0.212006,0l0.212006,0z"/>
  <path id="svg_17" d="m347.328003,299.121002c-0.118011,0 -0.233002,0 -0.351013,0.001984c0.118011,-0.001984 0.233002,-0.001984 0.351013,-0.001984z"/>
  <path id="svg_18" d="m346.194,299.122986l-0.30899,0l0.30899,0z"/>
  <path id="svg_19" d="m348.229004,299.118988c-0.302002,0 -0.604004,0.002014 -0.901001,0.002014c0.298004,0 0.600006,-0.002014 0.901001,-0.002014z"/>
  <path id="svg_20" d="m352.040009,299.108002c-1.20401,0.003998 -2.406006,0.009003 -3.592987,0.010986c1.186981,-0.001984 2.389984,-0.006989 3.592987,-0.010986z"/>
  <path id="svg_21" d="m371.143005,298.990997l0,0c-3.212006,0.024994 -11.141998,0.084991 -19.049988,0.11499c7.903992,-0.027985 15.835968,-0.088989 19.049988,-0.11499z"/>
  <path id="svg_22" d="m372.945007,297.510986l1.209991,-5.921997l-1.211975,5.924988c0,-0.001984 0.001984,-0.001984 0.001984,-0.004974l0,0.001984z"/>
  <path id="svg_23" d="m346.979004,299.122986l-0.785004,0l0.785004,0z"/>
  <path id="svg_24" d="m344.759003,299.125l-1.062012,0l1.062012,0z"/>
  <path id="svg_25" d="m345.884003,299.122986l-0.838013,0l0.838013,0z"/>
  <path id="svg_26" fill="#131B28" d="m128.082993,272.973999l2.311996,-10.252991l-2.643997,11.720001l-2.537003,11.937988l2.223999,-10.464996c0.172012,-0.809998 0.463013,-2.132996 0.645004,-2.940002l0,0z"/>
  <path style="vector-effect: non-scaling-stroke;" fill="#007fff" id="svg_27" d="m155.764999,229.707001l-16.352005,0c-0.826996,0 -1.651993,0.660995 -1.83699,1.464996l-1.550003,6.843002l-1.550995,6.845993c-0.182007,0.805008 0.345001,1.465012 1.171997,1.465012l16.477997,0c0.826004,0 1.647995,-0.661011 1.824997,-1.468002l1.499008,-6.843994l1.498993,-6.838013l0,-0.001999c0.175995,-0.806 -0.356003,-1.466995 -1.182999,-1.466995l0,0z"/>
  <path id="svg_28" d="m152.207001,252.472l0,-0.001999l-4.794998,22.187012l4.794998,-22.185013z"/>
  <path id="svg_29" fill="#131B28" d="m104.706001,325.984009c0,0 8.242996,0.105011 13.482002,0.105011c-3.979004,0 -10.554001,-0.072021 -13.489006,-0.106018c0.003006,0 0.005005,0.001007 0.007004,0.001007l0,0z"/>
  <path id="svg_30" fill="#131B28" d="m132.707993,252.468994l-2.315002,10.251984l2.315002,-10.251984z"/>
  <path style="vector-effect: non-scaling-stroke;" fill="#007fff" id="svg_31" d="m151.024002,251.001007l-16.479996,0c-0.826004,0 -1.652008,0.660995 -1.834,1.468002l-2.315002,10.253006l-2.312012,10.252991c-0.181992,0.806 -0.473991,2.128998 -0.645996,2.938019l-2.223999,10.465973l-2.223,10.465027c-0.172997,0.806 -0.528,2.110992 -0.792,2.894989c0,0 -3.078995,9.161011 -8.254997,9.057007c-0.220001,-0.005005 -0.433998,-0.007019 -0.646004,-0.012024c-2.506996,-0.048981 -4.478996,-0.083984 -4.478996,-0.083984l-0.003998,0c-0.824005,-0.011993 -1.655006,0.632996 -1.847,1.434998l-1.709999,7.187012l-1.707001,7.181c-0.192001,0.802979 0.326996,1.466003 1.146996,1.479004c2.936005,0.033997 9.510002,0.107971 13.488998,0.107971c12.929008,0 19.745003,-7.162994 24.112999,-27.773987l5.113007,-23.657013l4.794998,-22.187988c0.175995,-0.809006 -0.358002,-1.469009 -1.182999,-1.470001l0,0z"/>
  <path id="svg_32" d="m385.134003,298.287994c-0.826996,0 -1.364014,-0.662994 -1.188995,-1.472992l12.397003,-58.069016"/>
  <path id="svg_33" d="m402.362,296.812988l5.015015,-24.786011l-5.015015,24.786011z"/>
  <path id="svg_34" d="m384.123993,297.552002c-0.100006,-0.403992 -0.041992,-1.395996 0.134003,-2.205994l5.884979,-27.563995l-6.198975,29.034973c-0.174011,0.809021 0.362,1.472015 1.187988,1.472015l1.506012,0c-0.828003,-0.001007 -2.411987,-0.332001 -2.514008,-0.737l0,0z"/>
  <path id="svg_35" d="m401.384003,297.957001c-0.450989,0.182007 -1.496002,0.330994 -2.324005,0.330994l1.506012,0c0.825989,0 1.638,-0.662994 1.799988,-1.475006l0.300995,-1.472992c-0.165985,0.809998 -0.832977,2.43399 -1.28299,2.617004l0,0z"/>
  <path id="svg_36" d="m404.873993,284.42099l2.213989,-10.937988c-0.001984,0.006989 -0.001984,0.015991 -0.003998,0.020996l-2.209991,10.916992l0,0z"/>
  <path id="svg_37" d="m453.790009,242.636002l0.683014,2.821991c0.187988,0.808014 -0.334015,1.463013 -1.15802,1.465012"/>
  <path id="svg_38" d="m402.662994,295.34201l2.207001,-10.919006l-2.207001,10.919006z"/>
  <path id="svg_39" d="m453.110992,239.746002l0.675995,2.889999l-0.675995,-2.889999z"/>
  <path id="svg_40" d="m407.084015,273.481995c0.164001,-0.80899 0.437988,-2.122009 0.608002,-2.921997l2.363983,-11.075012l-2.677002,12.544006l-0.294983,1.453003l0,0z"/>
  <path id="svg_41" d="m396.54599,237.794006c-0.165009,0.781006 -0.375,1.768997 -0.516998,2.421997l-5.882996,27.563995l6.197998,-29.034988l0.201996,-0.951004l0,0z"/>
  <path fill="#007fff" id="svg_42" d="m454.468994,245.457993l-0.68399,-2.822006l-0.676025,-2.889999l-0.342987,-1.462997c-1.337006,-5.199997 -5.266998,-8.201996 -13.799011,-8.201996l-13.28299,-0.014008l-12.234009,-0.013992l-1.049988,0l-12.716003,0c-0.825012,0 -1.643005,0.660004 -1.812012,1.470001l0,0l-0.609985,2.875992l-0.718018,3.397003l-0.199982,0.951996l-6.199005,29.035004l-5.884003,27.563995c-0.174988,0.811005 -0.231995,1.802002 -0.132996,2.205994c0.100006,0.404999 1.686005,0.736023 2.514008,0.736023l12.416016,0c0.827972,0 1.875,-0.149017 2.323975,-0.331024c0.450012,-0.181976 1.117004,-1.806976 1.282013,-2.615997l2.207977,-10.919983l2.209015,-10.916992c0.001007,-0.004028 0.002014,-0.014008 0.003998,-0.021027l0.295013,-1.453003l2.677002,-12.543976l2.36499,-11.07901c0.174988,-0.804993 0.988007,-1.462997 1.813995,-1.464996l39.074005,-0.020004c0.825012,-0.002991 1.347015,-0.65799 1.158997,-1.464996l0,0z"/>
  <path fill="#007fff" id="svg_43" d="m504.772003,219.944c-0.82901,0.005997 -2.181,0.011002 -3.009003,0.011002l-12.506012,0c-0.828979,0 -1.888,0.559006 -2.353973,1.240997l-27.656006,40.51799c-0.46701,0.684021 -1.001007,0.581024 -1.184998,-0.223999l-2.033997,-8.925995c-0.183014,-0.806992 -1.012024,-1.464996 -1.837006,-1.464996l-17.779999,0c-0.828003,0 -1.317017,0.649002 -1.091003,1.444l7.966003,27.908997c0.227997,0.795013 0.244995,2.102997 0.039978,2.903015l-3.472992,13.507996c-0.205994,0.800995 0.303009,1.457001 1.131012,1.457001l17.570984,0c0.825012,0 1.671021,-0.656006 1.875,-1.457001l3.476013,-13.507996c0.203979,-0.801025 0.779999,-1.998016 1.277008,-2.658997l44.896973,-59.590012c0.499023,-0.660995 0.229004,-1.197006 -0.596985,-1.192001l-4.710999,0.029999l0,0z"/>
  <path style="vector-effect: non-scaling-stroke;" fill="#007fff" id="svg_44" d="m363.520996,254.897003l0,-0.016998c-0.104004,0.896988 -0.932007,1.554993 -1.759003,1.554993l-22.540985,0c-0.779022,0 -1.175018,-0.529999 -1.061005,-1.18399c0.006989,-0.019012 0.009003,-0.036011 0.020996,-0.052002c0,0 -0.007996,0.001999 -0.015015,0.005997c0.005005,-0.026001 0.005005,-0.048996 0.013,-0.074997c0,0 0.042023,-0.159012 0.103027,-0.384003c2.151978,-5.723999 6.537994,-9.479996 14.779999,-9.479996c9.278992,0.001999 11.087982,4.534988 10.458984,9.630997l0,0zm-6.613983,-26.016998c-28.933014,0 -35.790009,17.562012 -39.636993,35.286987c-3.846008,18.06601 -3.514008,34.958008 26.425995,34.958008l1.061981,0c0.096008,-0.002014 0.19101,-0.002014 0.286011,-0.002014l0.838989,0l0.307007,0l0.785004,0c0.118011,-0.001984 0.234009,-0.001984 0.351013,-0.001984c0.299988,0 0.600983,-0.002014 0.901978,-0.002014l0.213013,0c1.184998,-0.001984 2.388,-0.006989 3.591003,-0.010986l0.061005,0c7.90799,-0.031006 15.837982,-0.09201 19.052002,-0.117004c0.819,-0.011993 1.622986,-0.674011 1.792999,-1.47699l1.212006,-5.924011l0.234985,-1.153992l1.446014,-7.065002c0.166992,-0.811005 -0.375,-1.472992 -1.202026,-1.472992l-26.916992,0c-10.704987,0 -13.88501,-2.845001 -12.713989,-11.208008l43.027985,0l-0.003998,0.003998c0.011993,0 0.020996,-0.003998 0.031006,-0.003998c0.683014,-0.013 1.31601,-0.484009 1.565002,-1.110992c0.046997,-0.121002 0.088013,-0.246002 0.104004,-0.375l-0.005005,0.003998c6.388,-24.098007 4.557007,-40.327011 -22.812988,-40.327011l0.002991,-0.000992z"/>
  <path style="vector-effect: non-scaling-stroke;" fill="#007fff" id="svg_45" d="m220.156006,254.806l-0.406998,1.44101c0,0.005005 -0.000992,0.005005 -0.000992,0.005005l-3.249008,11.513977l-3.248001,11.513c-0.224991,0.795013 -1.084991,1.445007 -1.912994,1.445007l-17.197006,0c-13.042999,0 -16.220001,-10.200989 -13.042999,-25.25c3.175003,-15.391006 9.402008,-24.959 22.23999,-25.929001c17.544998,-1.321991 21.054001,11.016998 16.818008,25.261002l0,0zm11.792999,25.03299c0,0 8.108002,-19.687012 9.949997,-31.057999c2.511002,-15.222 -5.110001,-37.296005 -34.546997,-37.296005c-29.270004,0 -41.979004,21.076004 -46.828995,43.988007c-4.848999,23.076996 1.505005,43.31601 30.606995,43.151001l22.959991,-0.084991l21.457016,-0.078003c0.826996,-0.007996 1.671997,-0.662018 1.882004,-1.460999l3.737991,-14.257996c0.208008,-0.801025 -0.296997,-1.459015 -1.123001,-1.463013l-3.582993,-0.020996l-3.581009,-0.020996c-0.703995,-0.006012 -1.104996,-0.459015 -1.020996,-1.063019c0.015991,-0.108978 0.039993,-0.220978 0.089996,-0.334991l0,0z"/>
  <path style="vector-effect: non-scaling-stroke;" fill="#007fff" id="svg_47" d="m8.453,241.065994c-8.082,11.615997 -7.075,26.727982 -0.902,39.070999c0.147,0.29599 0.301,0.587006 0.453,0.878998c0.097,0.18399 0.188001,0.372986 0.289001,0.554993c0.057,0.109009 0.120999,0.216003 0.179999,0.320007c0.105,0.196991 0.213,0.384003 0.322001,0.575989c0.192,0.338013 0.389,0.674011 0.589,1.01001c0.111,0.184998 0.221,0.368988 0.336,0.553986c0.223,0.359009 0.450999,0.716003 0.684,1.070007c0.097,0.151001 0.191999,0.303009 0.292,0.449005c0.322,0.480011 0.651,0.959991 0.99,1.431c0.009,0.011993 0.019,0.024017 0.028,0.036011c0.054,0.075989 0.113,0.149994 0.167,0.225983c0.293,0.404999 0.597,0.805023 0.902,1.201019c0.113,0.143982 0.227,0.287994 0.34,0.432983c0.273,0.343994 0.551,0.684998 0.834,1.024994c0.106,0.127014 0.212,0.255005 0.319,0.380005c0.379,0.446014 0.767,0.891998 1.163,1.328003c0.007,0.007996 0.016,0.016998 0.023,0.024017c0.016,0.018982 0.03,0.029999 0.044,0.047974c0.386001,0.422028 0.781001,0.835022 1.182,1.247009c0.124001,0.127014 0.250999,0.255005 0.378,0.382019c0.309999,0.311981 0.625,0.616974 0.943001,0.924988c0.129,0.122009 0.257,0.247986 0.386,0.365997c0.424999,0.399994 0.854,0.792999 1.292,1.175995c0.007999,0.007996 0.013,0.014008 0.021,0.016998c0.073999,0.06601 0.150999,0.130005 0.225,0.19101c0.386,0.334991 0.778999,0.666992 1.174,0.993011c0.160999,0.129974 0.323999,0.258972 0.486,0.388c0.323,0.258972 0.65,0.513977 0.979,0.764984c0.174,0.132996 0.348,0.265991 0.522999,0.39801c0.363001,0.265991 0.729,0.529999 1.098001,0.786987c0.134998,0.097992 0.264999,0.19101 0.4,0.283997c0.036999,0.026001 0.070999,0.054016 0.108999,0.07901c0.351,0.23999 0.708,0.473999 1.066,0.704987c0.154001,0.102997 0.307001,0.208008 0.462,0.308014c0.549,0.346985 1.106001,0.690002 1.67,1.02301c0.153,0.086975 0.308001,0.172974 0.461,0.259979c0.414,0.239014 0.830999,0.473999 1.253,0.703003c0.227999,0.123016 0.462999,0.239014 0.692999,0.356018c0.299002,0.156982 0.595001,0.314972 0.897001,0.465973c0.069,0.035004 0.139999,0.068024 0.208,0.101013c0.121,0.05899 0.243999,0.115997 0.366999,0.178009c0.470001,0.225006 0.943001,0.444 1.421001,0.65799c0.101997,0.045013 0.200001,0.089996 0.300999,0.134003c0.547001,0.239014 1.100002,0.471008 1.658001,0.690002c0.133999,0.053986 0.269001,0.105011 0.403999,0.158997c0.515999,0.197998 1.039001,0.394989 1.563999,0.57901c0.067001,0.02298 0.131001,0.044983 0.197002,0.066986c0.577,0.201996 1.159,0.389008 1.744999,0.571014c0.139999,0.040985 0.279999,0.085999 0.421001,0.126984c0.597,0.179993 1.185997,0.394012 1.801998,0.507996c39.084,7.127014 50.436996,-23.487 50.436996,-23.487c-9.534996,12.421997 -26.459999,15.699005 -42.495995,12.050995c-0.608002,-0.136993 -1.197002,-0.325989 -1.790001,-0.501984c-0.151001,-0.045013 -0.298,-0.089996 -0.447002,-0.135986c-0.578999,-0.178009 -1.151997,-0.364014 -1.723,-0.561005c-0.077999,-0.027008 -0.156998,-0.057007 -0.237,-0.085022c-0.510998,-0.179993 -1.015999,-0.368988 -1.52,-0.562988c-0.141998,-0.057007 -0.284,-0.109985 -0.425999,-0.166992c-0.552002,-0.218018 -1.099998,-0.445007 -1.640999,-0.683014c-0.112,-0.046997 -0.218002,-0.096985 -0.328003,-0.145996c-0.465,-0.209991 -0.924999,-0.421997 -1.384998,-0.643005c-0.132,-0.063995 -0.264999,-0.126984 -0.398998,-0.191986c-0.359001,-0.175018 -0.716003,-0.360992 -1.070004,-0.544006c-0.237999,-0.125 -0.479,-0.243988 -0.713997,-0.373993c-0.434002,-0.231995 -0.859001,-0.473999 -1.283001,-0.720001c-0.144001,-0.080994 -0.289001,-0.15802 -0.434002,-0.240997c-0.563,-0.332001 -1.119999,-0.675995 -1.670998,-1.024017c-0.152,-0.096985 -0.301003,-0.199982 -0.451,-0.299988c-0.399002,-0.257996 -0.797001,-0.519989 -1.188,-0.791016c-0.130001,-0.085999 -0.256001,-0.181976 -0.382999,-0.268982c-0.378002,-0.266998 -0.752001,-0.537994 -1.124002,-0.812012c-0.167999,-0.123993 -0.334,-0.252991 -0.497999,-0.376984c-0.34,-0.261017 -0.679001,-0.522003 -1.014,-0.792999c-0.150999,-0.120026 -0.302999,-0.240997 -0.452,-0.362c-0.426001,-0.351013 -0.847,-0.702026 -1.263,-1.063019c-0.042999,-0.039001 -0.091,-0.075989 -0.138,-0.115997c-0.448999,-0.395996 -0.892,-0.800995 -1.327999,-1.208008c-0.127001,-0.121002 -0.25,-0.237976 -0.374001,-0.359985c-0.323999,-0.307007 -0.642,-0.617004 -0.954,-0.934998c-0.125,-0.125 -0.250999,-0.248993 -0.373999,-0.373016c-0.398001,-0.40799 -0.788,-0.819977 -1.171001,-1.238983c-0.018999,-0.020996 -0.039,-0.039001 -0.057999,-0.062012c-0.405001,-0.441986 -0.800001,-0.894989 -1.188,-1.35199c-0.105001,-0.125 -0.207001,-0.246002 -0.311001,-0.369019c-0.289,-0.347992 -0.575001,-0.699982 -0.854,-1.056976c-0.105,-0.127014 -0.209999,-0.259003 -0.313999,-0.390015c-0.336,-0.436981 -0.665001,-0.871002 -0.987001,-1.313995c-8.902999,-12.144012 -12.101999,-28.893997 -4.985999,-42.648987"/>
  <path style="vector-effect: non-scaling-stroke;" fill="#007fff" id="svg_48" d="m33.540001,231.279999c-5.845001,8.410995 -5.527,19.669006 -0.968002,28.563995c0.765003,1.490997 1.624001,2.938019 2.585003,4.315002c0.875,1.255005 1.845997,2.748016 3.007999,3.756012c0.422001,0.463989 0.862,0.916992 1.312,1.360992c0.113998,0.117004 0.23,0.227997 0.346001,0.342987c0.435997,0.421997 0.879997,0.83902 1.338997,1.243011c0.019001,0.015991 0.036003,0.033997 0.055,0.046997c0.005001,0.006012 0.010002,0.007996 0.013,0.014008c0.507999,0.444 1.032001,0.872986 1.564999,1.294006c0.118,0.089996 0.235001,0.184998 0.355003,0.276978c0.533997,0.409027 1.077999,0.812012 1.636997,1.195007c0.017002,0.011993 0.031002,0.02301 0.047001,0.037018c0.246002,0.168976 0.498001,0.327972 0.747002,0.490997c0.119999,0.078003 0.233997,0.16098 0.354,0.233978c0.397999,0.255005 0.801998,0.503998 1.212997,0.743011c0.058002,0.036011 0.115002,0.065002 0.171001,0.098999c0.354,0.20401 0.713001,0.404999 1.072998,0.600006c0.125,0.070984 0.253002,0.132996 0.381001,0.199005c0.249001,0.129974 0.497002,0.261993 0.75,0.388977c0.037003,0.018005 0.076,0.035004 0.113003,0.051025c0.514999,0.253998 1.035,0.497986 1.564999,0.728973c0.112999,0.050018 0.23,0.095001 0.346001,0.143005c0.423,0.180023 0.851997,0.355011 1.281998,0.520996c0.183002,0.069 0.367001,0.13501 0.550003,0.202026c0.389999,0.144989 0.782997,0.276978 1.177998,0.409973c0.179001,0.057007 0.354,0.115021 0.533001,0.170013c0.562,0.174011 1.117001,0.394989 1.702999,0.492004c30.176003,5 37.143997,-18.234009 37.143997,-18.234009c-6.280998,9.042999 -18.441994,13.360016 -31.419998,9.990997c-0.575996,-0.151001 -1.143997,-0.315979 -1.708,-0.493988c-0.172997,-0.053009 -0.342999,-0.109009 -0.514,-0.166016c-0.400997,-0.130005 -0.799999,-0.268982 -1.195999,-0.411987c-0.181,-0.065002 -0.362,-0.131989 -0.540001,-0.200012c-0.433998,-0.166992 -0.862,-0.338989 -1.286999,-0.519989c-0.116001,-0.049988 -0.232998,-0.093994 -0.347,-0.145996c-0.533001,-0.231018 -1.056999,-0.47702 -1.575001,-0.730011c-0.265999,-0.130981 -0.526997,-0.268982 -0.788998,-0.402008c-0.151001,-0.078979 -0.304001,-0.156982 -0.456001,-0.234985c-0.335999,-0.183014 -0.669998,-0.371002 -1,-0.562988c-0.077999,-0.045013 -0.159,-0.087006 -0.237999,-0.13501c-0.409,-0.239014 -0.812,-0.485016 -1.209999,-0.738007c-0.123001,-0.07901 -0.241001,-0.164001 -0.364002,-0.243988c-0.263,-0.171021 -0.526001,-0.343994 -0.784,-0.519012c-0.556,-0.382996 -1.098,-0.785004 -1.631001,-1.192993c-0.122997,-0.097015 -0.246998,-0.19101 -0.366997,-0.287994c-5.681,-4.485016 -10.183002,-10.615005 -12.324001,-17.564011c-2.243999,-7.207993 -1.761002,-15.298996 2.125999,-21.86499"/>
  <path style="vector-effect: non-scaling-stroke;" fill="#007fff" id="svg_49" d="m54.639,223.968002c-3.445,5.069992 -3.784,11.367996 -1.393002,16.968002c2.521,5.944 7.687,10.606995 13.716999,12.817001c0.249001,0.092987 0.497002,0.174988 0.749001,0.261002c0.110001,0.033997 0.219002,0.070999 0.330002,0.103989c0.355003,0.112 0.708,0.242004 1.074997,0.311005c16.662003,3.219986 21.182007,-8.550995 22.385002,-10.283005c-3.959,5.699997 -10.612,7.068008 -18.775002,5.087006c-0.644997,-0.158005 -1.353996,-0.389999 -1.974998,-0.610001c-0.796997,-0.283997 -1.582001,-0.608002 -2.346001,-0.973999c-1.448997,-0.697006 -2.831001,-1.542007 -4.112,-2.509003c-7.303997,-5.541992 -11.842999,-16.115997 -7.076,-24.727005"/>
 </g>
</svg>